<svg width="1280" height="820" viewBox="0 0 1280 820" fill="none" xmlns="http://www.w3.org/2000/svg">
  <defs>
    <linearGradient id="bg" x1="52" y1="40" x2="1228" y2="780" gradientUnits="userSpaceOnUse">
      <stop stop-color="#0B0D10"/>
      <stop offset="1" stop-color="#14181E"/>
    </linearGradient>
    <linearGradient id="panel" x1="90" y1="118" x2="1180" y2="744" gradientUnits="userSpaceOnUse">
      <stop stop-color="#111419"/>
      <stop offset="1" stop-color="#0D1014"/>
    </linearGradient>
    <linearGradient id="glow" x1="0" y1="0" x2="1" y2="1">
      <stop stop-color="#FF6A55"/>
      <stop offset="1" stop-color="#FF8C6B"/>
    </linearGradient>
    <filter id="shadow" x="0" y="0" width="1280" height="820" filterUnits="userSpaceOnUse" color-interpolation-filters="sRGB">
      <feDropShadow dx="0" dy="18" stdDeviation="18" flood-color="#000000" flood-opacity="0.35"/>
    </filter>
  </defs>

  <rect width="1280" height="820" rx="28" fill="#0A0C0F"/>
  <rect x="28" y="28" width="1224" height="764" rx="24" fill="url(#bg)"/>
  <rect x="42" y="42" width="1196" height="736" rx="22" fill="url(#panel)" stroke="#1F242C" stroke-width="2" filter="url(#shadow)"/>

  <rect x="62" y="60" width="1156" height="56" rx="16" fill="#0E1217" stroke="#20242C"/>
  <rect x="82" y="72" width="36" height="36" rx="10" fill="#F55D4F"/>
  <text x="100" y="95" fill="#FFFFFF" font-family="Arial, Helvetica, sans-serif" font-size="16" font-weight="700" text-anchor="middle">T4T</text>
  <text x="132" y="88" fill="#E5E7EB" font-family="Arial, Helvetica, sans-serif" font-size="24" font-weight="700">Twin4Twin</text>
  <text x="132" y="104" fill="#717784" font-family="Arial, Helvetica, sans-serif" font-size="12">LPBF Defect Detection</text>

  <rect x="232" y="72" width="112" height="34" rx="10" fill="#191E26" stroke="#39538F" stroke-width="2"/>
  <text x="288" y="94" fill="#FF755B" font-family="Arial, Helvetica, sans-serif" font-size="15" font-weight="700" text-anchor="middle">Home</text>
  <text x="382" y="94" fill="#828894" font-family="Arial, Helvetica, sans-serif" font-size="15" font-weight="600">Post-build Analysis</text>
  <text x="584" y="94" fill="#828894" font-family="Arial, Helvetica, sans-serif" font-size="15" font-weight="600">Thermal Analysis</text>
  <text x="753" y="94" fill="#828894" font-family="Arial, Helvetica, sans-serif" font-size="15" font-weight="600">Reporting</text>
  <text x="868" y="94" fill="#828894" font-family="Arial, Helvetica, sans-serif" font-size="15" font-weight="600">Info</text>
  <rect x="1100" y="74" width="88" height="28" rx="14" fill="#171B22"/>
  <text x="1144" y="92" fill="#D1D5DB" font-family="Arial, Helvetica, sans-serif" font-size="12" font-weight="700" text-anchor="middle">316L-BJ88</text>

  <text x="86" y="162" fill="#F3F4F6" font-family="Arial, Helvetica, sans-serif" font-size="26" font-weight="700">LPBF Digital Twin for Metal Additive Manufacturing</text>
  <text x="86" y="191" fill="#7A808B" font-family="Arial, Helvetica, sans-serif" font-size="16">AI-powered defect detection, severity scoring, thermal review, and inspection reporting</text>

  <rect x="86" y="226" width="278" height="92" rx="14" fill="#11151B" stroke="#21262E"/>
  <rect x="382" y="226" width="278" height="92" rx="14" fill="#11151B" stroke="#21262E"/>
  <rect x="678" y="226" width="278" height="92" rx="14" fill="#11151B" stroke="#21262E"/>
  <rect x="974" y="226" width="244" height="92" rx="14" fill="#11151B" stroke="#21262E"/>
  <text x="104" y="270" fill="#F3F4F6" font-family="Arial, Helvetica, sans-serif" font-size="18" font-weight="700">Post-build Analysis</text>
  <text x="104" y="296" fill="#767C87" font-family="Arial, Helvetica, sans-serif" font-size="14">Run detection on camera images and review DSI severity.</text>
  <text x="400" y="270" fill="#F3F4F6" font-family="Arial, Helvetica, sans-serif" font-size="18" font-weight="700">Thermal Analysis</text>
  <text x="400" y="296" fill="#767C87" font-family="Arial, Helvetica, sans-serif" font-size="14">Correlate hot-spot anomalies with visible defects.</text>
  <text x="696" y="270" fill="#F3F4F6" font-family="Arial, Helvetica, sans-serif" font-size="18" font-weight="700">Reporting</text>
  <text x="696" y="296" fill="#767C87" font-family="Arial, Helvetica, sans-serif" font-size="14">Generate summaries with exportable JSON and CSV outputs.</text>
  <text x="992" y="270" fill="#F3F4F6" font-family="Arial, Helvetica, sans-serif" font-size="18" font-weight="700">Info</text>
  <text x="992" y="296" fill="#767C87" font-family="Arial, Helvetica, sans-serif" font-size="14">Application logs, health status, and utilities.</text>

  <rect x="86" y="344" width="504" height="378" rx="18" fill="#0E1217" stroke="#21262E"/>
  <text x="108" y="376" fill="#F3F4F6" font-family="Arial, Helvetica, sans-serif" font-size="18" font-weight="700">Pipeline Visualization</text>
  <text x="108" y="398" fill="#737985" font-family="Arial, Helvetica, sans-serif" font-size="13">Run the AI defect detection pipeline step by step</text>

  <rect x="108" y="430" width="460" height="42" rx="12" fill="#12171D" stroke="#1F242C"/>
  <circle cx="126" cy="451" r="8" stroke="#4B5563" stroke-width="2"/>
  <text x="146" y="456" fill="#C4C8CF" font-family="Arial, Helvetica, sans-serif" font-size="15" font-weight="700">LOAD JOB DATA</text>
  <rect x="480" y="439" width="66" height="22" rx="11" fill="#171B22"/>
  <text x="513" y="454" fill="#7E8591" font-family="Arial, Helvetica, sans-serif" font-size="11" font-weight="700" text-anchor="middle">Pending</text>

  <rect x="108" y="484" width="460" height="42" rx="12" fill="#12171D" stroke="#1F242C"/>
  <circle cx="126" cy="505" r="8" stroke="#4B5563" stroke-width="2"/>
  <text x="146" y="510" fill="#C4C8CF" font-family="Arial, Helvetica, sans-serif" font-size="15" font-weight="700">LOAD AI MODEL</text>
  <rect x="480" y="493" width="66" height="22" rx="11" fill="#171B22"/>
  <text x="513" y="508" fill="#7E8591" font-family="Arial, Helvetica, sans-serif" font-size="11" font-weight="700" text-anchor="middle">Pending</text>

  <rect x="108" y="538" width="460" height="42" rx="12" fill="#12171D" stroke="#1F242C"/>
  <circle cx="126" cy="559" r="8" stroke="#4B5563" stroke-width="2"/>
  <text x="146" y="564" fill="#C4C8CF" font-family="Arial, Helvetica, sans-serif" font-size="15" font-weight="700">RUN DEFECT DETECTION</text>
  <rect x="480" y="547" width="66" height="22" rx="11" fill="#171B22"/>
  <text x="513" y="562" fill="#7E8591" font-family="Arial, Helvetica, sans-serif" font-size="11" font-weight="700" text-anchor="middle">Pending</text>

  <rect x="108" y="592" width="460" height="42" rx="12" fill="#12171D" stroke="#1F242C"/>
  <circle cx="126" cy="613" r="8" stroke="#4B5563" stroke-width="2"/>
  <text x="146" y="618" fill="#C4C8CF" font-family="Arial, Helvetica, sans-serif" font-size="15" font-weight="700">COMPUTE SEVERITY INDEX</text>
  <rect x="480" y="601" width="66" height="22" rx="11" fill="#171B22"/>
  <text x="513" y="616" fill="#7E8591" font-family="Arial, Helvetica, sans-serif" font-size="11" font-weight="700" text-anchor="middle">Pending</text>

  <rect x="108" y="646" width="460" height="42" rx="12" fill="#12171D" stroke="#1F242C"/>
  <circle cx="126" cy="667" r="8" stroke="#4B5563" stroke-width="2"/>
  <text x="146" y="672" fill="#C4C8CF" font-family="Arial, Helvetica, sans-serif" font-size="15" font-weight="700">GENERATE ALERTS</text>
  <rect x="480" y="655" width="66" height="22" rx="11" fill="#171B22"/>
  <text x="513" y="670" fill="#7E8591" font-family="Arial, Helvetica, sans-serif" font-size="11" font-weight="700" text-anchor="middle">Pending</text>

  <rect x="620" y="344" width="598" height="378" rx="18" fill="#0E1217" stroke="#21262E"/>
  <text x="646" y="376" fill="#F3F4F6" font-family="Arial, Helvetica, sans-serif" font-size="18" font-weight="700">Post-build Analysis</text>
  <text x="646" y="398" fill="#737985" font-family="Arial, Helvetica, sans-serif" font-size="13">Layer view with localized defect indications and part DSI cards</text>

  <rect x="646" y="420" width="390" height="272" rx="14" fill="#16181D" stroke="#262B33"/>
  <rect x="670" y="452" width="340" height="196" rx="10" fill="#7E7D79"/>
  <ellipse cx="840" cy="548" rx="150" ry="108" fill="#C8C5BF" fill-opacity="0.68"/>
  <path d="M714 496C774 468 822 468 846 476C812 548 810 600 820 638C780 644 728 630 700 586C678 550 682 514 714 496Z" fill="#52504D" fill-opacity="0.9"/>
  <path d="M878 480C930 466 974 482 998 518C1020 554 1012 602 970 630C934 654 890 646 856 626C866 572 870 520 878 480Z" fill="#4A4846" fill-opacity="0.9"/>
  <ellipse cx="954" cy="564" rx="18" ry="15" fill="#B9B2A9" fill-opacity="0.85"/>
  <rect x="808" y="594" width="34" height="34" rx="2" fill="#11C870" fill-opacity="0.15" stroke="#3BFFA0" stroke-width="2"/>
  <rect x="860" y="608" width="42" height="42" rx="2" fill="#11C870" fill-opacity="0.12" stroke="#3BFFA0" stroke-width="2"/>
  <text x="814" y="589" fill="#67FFB2" font-family="Arial, Helvetica, sans-serif" font-size="9" font-weight="700">2%</text>
  <text x="866" y="603" fill="#67FFB2" font-family="Arial, Helvetica, sans-serif" font-size="9" font-weight="700">3%</text>

  <rect x="1058" y="420" width="136" height="78" rx="12" fill="#12171D" stroke="#232931"/>
  <text x="1074" y="446" fill="#D7DBE0" font-family="Arial, Helvetica, sans-serif" font-size="14" font-weight="700">Part 6</text>
  <rect x="1140" y="434" width="36" height="16" rx="8" fill="#4B1518"/>
  <text x="1158" y="445" fill="#FF756D" font-family="Arial, Helvetica, sans-serif" font-size="9" font-weight="700" text-anchor="middle">High</text>
  <path d="M1072 468C1090 460 1112 462 1132 466C1154 470 1170 460 1180 468" stroke="#FF5A57" stroke-width="2.5" stroke-linecap="round"/>
  <rect x="1072" y="482" width="88" height="5" rx="2.5" fill="#FF5A57"/>
  <text x="1166" y="487" fill="#FF8D89" font-family="Arial, Helvetica, sans-serif" font-size="12" font-weight="700">76.9</text>

  <rect x="1058" y="512" width="136" height="78" rx="12" fill="#12171D" stroke="#232931"/>
  <text x="1074" y="538" fill="#D7DBE0" font-family="Arial, Helvetica, sans-serif" font-size="14" font-weight="700">Part 7</text>
  <rect x="1130" y="526" width="48" height="16" rx="8" fill="#4B3510"/>
  <text x="1154" y="537" fill="#FFAA3B" font-family="Arial, Helvetica, sans-serif" font-size="9" font-weight="700" text-anchor="middle">Elevated</text>
  <path d="M1072 560C1086 574 1106 548 1128 554C1146 560 1154 582 1180 560" stroke="#FF9A28" stroke-width="2.5" stroke-linecap="round"/>
  <rect x="1072" y="574" width="76" height="5" rx="2.5" fill="#FF9A28"/>
  <text x="1166" y="579" fill="#FFB760" font-family="Arial, Helvetica, sans-serif" font-size="12" font-weight="700">44.4</text>

  <rect x="1058" y="604" width="136" height="78" rx="12" fill="#12171D" stroke="#232931"/>
  <text x="1074" y="630" fill="#D7DBE0" font-family="Arial, Helvetica, sans-serif" font-size="14" font-weight="700">Part 8</text>
  <rect x="1140" y="618" width="36" height="16" rx="8" fill="#4B1518"/>
  <text x="1158" y="629" fill="#FF756D" font-family="Arial, Helvetica, sans-serif" font-size="9" font-weight="700" text-anchor="middle">High</text>
  <path d="M1072 652C1092 648 1110 646 1130 650C1150 654 1166 648 1180 650" stroke="#FF5A57" stroke-width="2.5" stroke-linecap="round"/>
  <rect x="1072" y="666" width="90" height="5" rx="2.5" fill="#FF5A57"/>
  <text x="1166" y="671" fill="#FF8D89" font-family="Arial, Helvetica, sans-serif" font-size="12" font-weight="700">78.8</text>

  <rect x="646" y="436" width="140" height="14" rx="7" fill="#1B2028"/>
  <circle cx="660" cy="443" r="5" fill="#FF5A57"/>
  <rect x="692" y="439" width="66" height="8" rx="4" fill="#2D3744"/>
  <rect x="770" y="436" width="66" height="14" rx="7" fill="#4B1518"/>
  <text x="803" y="446" fill="#FF756D" font-family="Arial, Helvetica, sans-serif" font-size="9" font-weight="700" text-anchor="middle">2 defects</text>

  <rect x="86" y="744" width="1132" height="24" rx="12" fill="#0D1116" stroke="#20242C"/>
  <text x="108" y="760" fill="#838A96" font-family="Arial, Helvetica, sans-serif" font-size="12">Fused showcase visual inspired by the Home and Post-build Analysis screens</text>
</svg>
