<svg width="1280" height="720" viewBox="0 0 1280 720" fill="none" xmlns="http://www.w3.org/2000/svg">
  <defs>
    <linearGradient id="bg5" x1="60" y1="48" x2="1218" y2="676" gradientUnits="userSpaceOnUse">
      <stop stop-color="#0B1220"/>
      <stop offset="1" stop-color="#1F2937"/>
    </linearGradient>
  </defs>
  <rect width="1280" height="720" rx="24" fill="#0F172A"/>
  <rect x="32" y="32" width="1216" height="656" rx="18" fill="url(#bg5)" stroke="#334155" stroke-width="2"/>
  <rect x="72" y="72" width="1136" height="70" rx="16" fill="#111827" stroke="#243244"/>
  <rect x="96" y="92" width="180" height="28" rx="14" fill="#DC2626" fill-opacity="0.2"/>
  <text x="186" y="111" fill="#F87171" font-family="Arial, Helvetica, sans-serif" font-size="15" font-weight="700" text-anchor="middle">Heating Network</text>
  <rect x="72" y="176" width="520" height="460" rx="18" fill="#111827" stroke="#243244"/>
  <rect x="620" y="176" width="588" height="220" rx="18" fill="#111827" stroke="#243244"/>
  <rect x="620" y="416" width="280" height="220" rx="18" fill="#111827" stroke="#243244"/>
  <rect x="928" y="416" width="280" height="220" rx="18" fill="#111827" stroke="#243244"/>
  <text x="100" y="216" fill="#E5E7EB" font-family="Arial, Helvetica, sans-serif" font-size="18" font-weight="700">Network Map</text>
  <circle cx="182" cy="316" r="24" fill="#F97316"/>
  <circle cx="316" cy="284" r="20" fill="#FB7185"/>
  <circle cx="260" cy="440" r="22" fill="#38BDF8"/>
  <circle cx="420" cy="388" r="20" fill="#22C55E"/>
  <circle cx="492" cy="520" r="22" fill="#F59E0B"/>
  <path d="M182 316C220 306 262 294 316 284" stroke="#F97316" stroke-width="10" stroke-linecap="round"/>
  <path d="M316 284C294 334 280 384 260 440" stroke="#FB7185" stroke-width="10" stroke-linecap="round"/>
  <path d="M316 284C350 318 384 348 420 388" stroke="#60A5FA" stroke-width="10" stroke-linecap="round"/>
  <path d="M420 388C448 428 468 470 492 520" stroke="#22C55E" stroke-width="10" stroke-linecap="round"/>
  <path d="M260 440C328 444 402 470 492 520" stroke="#F59E0B" stroke-width="10" stroke-linecap="round"/>
  <text x="648" y="216" fill="#E5E7EB" font-family="Arial, Helvetica, sans-serif" font-size="18" font-weight="700">Demand & Supply</text>
  <path d="M652 350C704 300 756 284 808 304C860 324 910 278 964 296C1016 314 1062 360 1172 320" stroke="#F97316" stroke-width="5" stroke-linecap="round"/>
  <path d="M652 332C704 356 756 372 808 364C860 356 910 378 964 366C1016 354 1080 332 1172 346" stroke="#38BDF8" stroke-width="5" stroke-linecap="round"/>
  <rect x="652" y="250" width="126" height="28" rx="14" fill="#1F2937"/>
  <text x="715" y="269" fill="#CBD5E1" font-family="Arial, Helvetica, sans-serif" font-size="13" font-weight="700" text-anchor="middle">Forecast</text>
  <rect x="648" y="456" width="224" height="20" rx="10" fill="#CBD5E1"/>
  <rect x="648" y="492" width="180" height="14" rx="7" fill="#64748B"/>
  <rect x="648" y="532" width="148" height="38" rx="19" fill="#22C55E"/>
  <text x="956" y="456" fill="#E5E7EB" font-family="Arial, Helvetica, sans-serif" font-size="18" font-weight="700">Optimization KPIs</text>
  <rect x="956" y="486" width="224" height="18" rx="9" fill="#CBD5E1"/>
  <rect x="956" y="520" width="196" height="14" rx="7" fill="#64748B"/>
  <rect x="956" y="560" width="168" height="38" rx="19" fill="#F97316"/>
  <text x="72" y="668" fill="#E2E8F0" font-family="Arial, Helvetica, sans-serif" font-size="34" font-weight="700">Add district heating project screenshot here</text>
  <text x="72" y="696" fill="#94A3B8" font-family="Arial, Helvetica, sans-serif" font-size="20">Recommended: system map, demand forecast, or optimization dashboard</text>
</svg>
