<svg width="1280" height="720" viewBox="0 0 1280 720" fill="none" xmlns="http://www.w3.org/2000/svg">
  <rect width="1280" height="720" rx="24" fill="#0F172A"/>
  <rect x="32" y="32" width="1216" height="656" rx="18" fill="url(#paint0_linear_1_2)" stroke="#334155" stroke-width="2"/>
  <rect x="72" y="80" width="220" height="16" rx="8" fill="#38BDF8" fill-opacity="0.9"/>
  <rect x="72" y="124" width="452" height="22" rx="11" fill="#E2E8F0" fill-opacity="0.95"/>
  <rect x="72" y="164" width="352" height="14" rx="7" fill="#94A3B8"/>
  <rect x="72" y="198" width="416" height="14" rx="7" fill="#64748B"/>
  <rect x="72" y="250" width="1136" height="360" rx="18" fill="#111827" stroke="#1E293B" stroke-width="2"/>
  <rect x="112" y="290" width="220" height="140" rx="14" fill="#1E293B"/>
  <rect x="360" y="290" width="220" height="140" rx="14" fill="#172554"/>
  <rect x="608" y="290" width="220" height="140" rx="14" fill="#1E293B"/>
  <rect x="856" y="290" width="220" height="140" rx="14" fill="#172554"/>
  <rect x="112" y="454" width="420" height="16" rx="8" fill="#CBD5E1"/>
  <rect x="112" y="486" width="280" height="14" rx="7" fill="#64748B"/>
  <rect x="112" y="534" width="188" height="38" rx="19" fill="#38BDF8"/>
  <text x="72" y="648" fill="#E2E8F0" font-family="Arial, Helvetica, sans-serif" font-size="34" font-weight="700">Add private project screenshot here</text>
  <text x="72" y="678" fill="#94A3B8" font-family="Arial, Helvetica, sans-serif" font-size="20">Recommended: product UI, dashboard, or landing page view</text>
  <defs>
    <linearGradient id="paint0_linear_1_2" x1="94" y1="48" x2="1196" y2="688" gradientUnits="userSpaceOnUse">
      <stop stop-color="#0B1120"/>
      <stop offset="1" stop-color="#111827"/>
    </linearGradient>
  </defs>
</svg>
