<svg width="1280" height="720" viewBox="0 0 1280 720" fill="none" xmlns="http://www.w3.org/2000/svg">
  <rect width="1280" height="720" rx="24" fill="#101828"/>
  <rect x="32" y="32" width="1216" height="656" rx="18" fill="url(#paint0_linear_1_3)" stroke="#334155" stroke-width="2"/>
  <circle cx="106" cy="104" r="16" fill="#22C55E"/>
  <circle cx="154" cy="104" r="16" fill="#F59E0B"/>
  <circle cx="202" cy="104" r="16" fill="#EF4444"/>
  <rect x="72" y="152" width="320" height="22" rx="11" fill="#E2E8F0"/>
  <rect x="72" y="192" width="504" height="14" rx="7" fill="#94A3B8"/>
  <rect x="72" y="226" width="388" height="14" rx="7" fill="#64748B"/>
  <rect x="72" y="270" width="1136" height="316" rx="20" fill="#0B1220" stroke="#1E293B" stroke-width="2"/>
  <rect x="104" y="306" width="300" height="248" rx="16" fill="#14213D"/>
  <rect x="432" y="306" width="352" height="112" rx="16" fill="#1D4ED8" fill-opacity="0.22"/>
  <rect x="432" y="442" width="352" height="112" rx="16" fill="#0F766E" fill-opacity="0.22"/>
  <rect x="812" y="306" width="364" height="248" rx="16" fill="#111827"/>
  <rect x="852" y="346" width="284" height="16" rx="8" fill="#CBD5E1"/>
  <rect x="852" y="382" width="224" height="14" rx="7" fill="#94A3B8"/>
  <rect x="852" y="418" width="256" height="14" rx="7" fill="#64748B"/>
  <rect x="852" y="470" width="176" height="38" rx="19" fill="#22C55E"/>
  <text x="72" y="640" fill="#E2E8F0" font-family="Arial, Helvetica, sans-serif" font-size="34" font-weight="700">Private project placeholder</text>
  <text x="72" y="672" fill="#94A3B8" font-family="Arial, Helvetica, sans-serif" font-size="20">Swap this file with a real product screenshot when ready</text>
  <defs>
    <linearGradient id="paint0_linear_1_3" x1="74" y1="56" x2="1208" y2="676" gradientUnits="userSpaceOnUse">
      <stop stop-color="#0B1120"/>
      <stop offset="1" stop-color="#172033"/>
    </linearGradient>
  </defs>
</svg>
